<svg width="45" height="44" viewBox="0 0 45 44" fill="none" xmlns="http://www.w3.org/2000/svg">
<path d="M42.9414 22.0576C42.9414 33.3476 33.789 42.5 22.499 42.5C11.209 42.5 2.05664 33.3476 2.05664 22.0576C2.05664 10.7676 11.209 1.61523 22.499 1.61523C33.789 1.61523 42.9414 10.7676 42.9414 22.0576Z" stroke="#D1D5DB" stroke-width="3"/>
<path d="M23.998 12.043C23.998 11.2145 23.3265 10.543 22.498 10.543C21.6696 10.543 20.998 11.2145 20.998 12.043L23.998 12.043ZM21.4374 33.1329C22.0232 33.7187 22.9729 33.7187 23.5587 33.1329L33.1046 23.587C33.6904 23.0012 33.6904 22.0514 33.1046 21.4657C32.5189 20.8799 31.5691 20.8799 30.9833 21.4657L22.498 29.9509L14.0128 21.4657C13.427 20.8799 12.4772 20.8799 11.8914 21.4657C11.3057 22.0515 11.3057 23.0012 11.8914 23.587L21.4374 33.1329ZM20.998 12.043L20.998 32.0723L23.998 32.0723L23.998 12.043L20.998 12.043Z" fill="#D1D5DB"/>
</svg>
